<?xml version="1.0" ?><!DOCTYPE svg PUBLIC "-//W3C//DTD SVG 1.1//EN" "http://www.w3.org/Graphics/SVG/1.1/DTD/svg11.dtd"><svg xmlns="http://www.w3.org/2000/svg" xmlns:xlink="http://www.w3.org/1999/xlink"><symbol viewBox="0 0 1472 2048" id="arrow" xmlns="http://www.w3.org/2000/svg"><path d="M1472 1088c0 36-12.333 66.333-37 91l-651 651c-26 24.667-56.333 37-91 37-34 0-64-12.333-90-37l-75-75c-25.333-25.333-38-55.667-38-91s12.667-65.667 38-91l293-293H117c-34.667 0-62.833-12.5-84.5-37.5S0 1187.333 0 1152v-128c0-35.333 10.833-65.5 32.5-90.5S82.333 896 117 896h704L528 602c-25.333-24-38-54-38-90s12.667-66 38-90l75-75c25.333-25.333 55.333-38 90-38 35.333 0 65.667 12.667 91 38l651 651c24.667 23.333 37 53.333 37 90z"/></symbol><symbol viewBox="0 20 80 50" id="book" xmlns="http://www.w3.org/2000/svg"><path d="M26.947 38.109c-7.912-3.278-14.864-3.573-21.241-.921l-.394-.966c6.649-2.758 13.867-2.449 22.038.927l-.403.96zm.404 5.368c-8.161-3.374-15.389-3.682-22.038-.928l.394.963c6.4-2.641 13.339-2.335 21.241.928l.403-.963zm0-12.658c-8.161-3.374-15.389-3.674-22.038-.933l.394.969c6.4-2.646 13.339-2.343 21.241.929l.403-.965zm35.201 12.486l3.169-3.176v24.003H38.585c-.938.802-3.143 1.372-5.727 1.372-2.581 0-4.782-.57-5.714-1.372H0v-37.01-5.541c17.865-7.757 30.914-.147 33.182 2.048 1.587-1.462 13.121-8.262 28.148-3.658l-3.019 3.021a24.912 24.912 0 00-6.888-.981c-8.968 0-16.249 2.975-16.249 8.479v30.996c0-1.455 12.702-9.978 27.382-.679V43.305h-.004zM30.758 30.49c0-5.504-7.278-8.479-16.247-8.479-4.306 0-8.223 1.031-11.123 2.711v36.081c14.665-9.3 27.369-.776 27.369.679V30.49zm6.471 6.654l.398.966c3.117-1.294 6.325-1.994 9.483-2.367l.456-1.095c-3.438.344-6.938 1.095-10.337 2.496zm0 6.333l.394.963c2.227-.917 4.494-1.549 6.771-1.999l.445-1.108c-2.541.456-5.112 1.108-7.61 2.144zm0-12.658l.394.965a34.154 34.154 0 0114.46-2.561l.983-.989a35.092 35.092 0 00-15.837 2.585zm41.189-6.688L59.145 43.404l-4.95 2.024c-1.139.451-2.734 1.108-4.096 1.652-.373.155-.818.331-1.124.455l-2.351.969c-1.43.569-2.134-.119-1.543-1.559l.942-2.346c.135-.306.311-.74.466-1.118.56-1.362 1.201-2.975 1.657-4.099l2.03-4.961 19.262-19.268c1.181-1.188 2.828-1.479 3.651-.652l5.985 5.986c.815.83.525 2.469-.656 3.644zM56.286 42.829l-5.54-5.548-1.098 2.716-.643 1.564-.621 1.532 2.092 2.103 3.117-1.269 2.693-1.098z"/></symbol><symbol viewBox="0 0 612.043 612.043" id="cross" xmlns="http://www.w3.org/2000/svg"><path d="M397.503 306.011L593.08 110.434c25.27-25.269 25.27-66.213 0-91.482-25.269-25.269-66.213-25.269-91.481 0L306.022 214.551 110.445 18.974c-25.269-25.269-66.213-25.269-91.482 0s-25.269 66.213 0 91.482L214.54 306.033 18.963 501.61c-25.269 25.269-25.269 66.213 0 91.481 25.269 25.27 66.213 25.27 91.482 0l195.577-195.576 195.577 195.576c25.269 25.27 66.213 25.27 91.481 0 25.27-25.269 25.27-66.213 0-91.481L397.503 306.011z"/></symbol><symbol viewBox="0 0 60.734 60.733" id="facebook" xmlns="http://www.w3.org/2000/svg"><path d="M57.378.001H3.352A3.352 3.352 0 000 3.353v54.026a3.353 3.353 0 003.352 3.354h29.086V37.214h-7.914v-9.167h7.914v-6.76c0-7.843 4.789-12.116 11.787-12.116 3.355 0 6.232.251 7.071.36v8.198l-4.854.002c-3.805 0-4.539 1.809-4.539 4.462v5.851h9.078l-1.187 9.166h-7.892v23.52h15.475a3.355 3.355 0 003.355-3.351V3.351a3.352 3.352 0 00-3.354-3.35z"/></symbol><symbol viewBox="0 0 504.4 504.4" id="flickr" xmlns="http://www.w3.org/2000/svg"><path d="M377.6.2H126.4C56.8.2 0 57 0 126.6v251.6c0 69.2 56.8 126 126.4 126H378c69.6 0 126.4-56.8 126.4-126.4V126.6C504 57 447.2.2 377.6.2zM158.8 325.4c-41.2 0-74.4-32.8-74.4-73.2s33.2-73.2 74.4-73.2 74.4 32.8 74.4 73.2c0 40.4-33.6 73.2-74.4 73.2zm186.4 0c-41.2 0-74.4-32.8-74.4-73.2S304 179 345.2 179s74.4 32.8 74.4 73.2c0 40.4-33.2 73.2-74.4 73.2z"/></symbol><symbol viewBox="0 0 512 512" id="instagram" xmlns="http://www.w3.org/2000/svg"><path d="M505 257c0 34.8-.7 69.7.2 104.5 1.5 61.6-37.2 109.2-86.5 130.4-19.8 8.5-40.6 13-62.1 13-67.3.1-134.7 1-202-.3-50.7-1-92.4-22.2-122.3-64-15.7-22-23.2-47-23.2-74.1v-215c0-58.5 28.5-99.4 79.1-126C110.2 14 134.1 9.1 159 9c65.3 0 130.7-.4 196 .2 50.7.4 93 19.8 124.2 60.6 17.4 22.8 25.8 49 25.8 77.8V257zm-459 0v110c0 16.4 3.8 31.8 12.3 45.7 22.3 36.5 56 54.3 97.8 55 67.1 1 134.3.4 201.5.2 16.5 0 32.5-3.4 47.4-10.5 40.6-19.4 63.3-50.3 63.1-96.7-.4-71-.1-142-.1-213 0-20.1-5.7-38.5-17.6-54.7-23-31.1-54.8-46.4-92.8-46.8-67-.8-134-.3-201-.2-14.3 0-28.1 2.9-41.5 7.9-36.8 13.7-71 48.4-69.4 99.5 1.2 34.6.3 69.1.3 103.6z"/><path d="M257.6 363c-64.5 0-116.5-51.4-116.6-115.4-.1-63 52.3-114.6 116.4-114.6 64.3-.1 116.5 51.4 116.6 114.9 0 63.4-52.1 115-116.4 115.1zm0-37c43.9 0 79.5-35.1 79.4-78.3-.1-42.8-35.7-77.8-79.4-77.8-43.9 0-79.7 34.9-79.7 78 .1 43.2 35.8 78.2 79.7 78.1zM387.5 98c13.5 0 24.5 11.5 24.5 25.6-.1 14.1-11.2 25.5-24.7 25.4-13.3-.1-24.2-11.5-24.2-25.3C363 109.6 374 98 387.5 98z"/></symbol><symbol viewBox="0 0 60 60" id="letter" xmlns="http://www.w3.org/2000/svg"><path d="M0 8.5V51.5h60V8.5H0zm36.625 22.064l-5.446 5.472c-.662.615-1.698.614-2.332.026l-5.473-5.498.048-.047L3.647 10.5h52.719L36.577 30.518l.048.046zm-16.101-.031L2 48.355V11.923l18.524 18.61zm1.41 1.417l5.523 5.549a3.704 3.704 0 002.533.993c.923 0 1.85-.339 2.581-1.02l5.496-5.522L56.304 49.5H3.686l18.248-17.55zm17.543-1.416L58 11.922v36.433L39.477 30.534z"/></symbol><symbol viewBox="0 0 477.156 477.156" id="phone" xmlns="http://www.w3.org/2000/svg"><path d="M475.009 380.316l-2.375-7.156c-5.625-16.719-24.062-34.156-41-38.75l-62.688-17.125c-17-4.625-41.25 1.594-53.688 14.031l-22.688 22.688c-82.453-22.28-147.109-86.938-169.359-169.375L145.9 161.94c12.438-12.438 18.656-36.656 14.031-53.656l-17.094-62.719c-4.625-16.969-22.094-35.406-38.781-40.969L96.9 2.19c-16.719-5.563-40.563.063-53 12.5L9.962 48.659C3.899 54.69.024 71.94.024 72.003c-1.187 107.75 41.063 211.562 117.281 287.781 76.031 76.031 179.454 118.219 286.891 117.313.562 0 18.312-3.813 24.375-9.845l33.938-33.938c12.437-12.436 18.062-36.279 12.5-52.998z"/></symbol><symbol viewBox="0 0 612.08 612.08" id="search" xmlns="http://www.w3.org/2000/svg"><path d="M237.927 0C106.555 0 .035 106.52.035 237.893s106.52 237.893 237.893 237.893c50.518 0 97.368-15.757 135.879-42.597l.028-.028 176.432 176.433c3.274 3.274 8.48 3.358 11.839 0l47.551-47.551c3.274-3.274 3.106-8.703-.028-11.838L433.223 373.8c26.84-38.539 42.597-85.39 42.597-135.907C475.82 106.52 369.3 0 237.927 0zm0 419.811c-100.475 0-181.918-81.443-181.918-181.918S137.453 55.975 237.927 55.975s181.918 81.443 181.918 181.918-81.443 181.918-181.918 181.918z"/></symbol><symbol viewBox="0 0 511.626 511.627" id="suitcase" xmlns="http://www.w3.org/2000/svg"><path d="M18.842 128.48C6.28 141.043 0 156.08 0 173.588v237.537c0 17.515 6.28 32.552 18.842 45.111 12.563 12.565 27.6 18.842 45.111 18.842h18.271V109.634H63.953c-17.515 0-32.551 6.283-45.111 18.846zM365.446 63.955c0-7.614-2.663-14.084-7.994-19.414-5.325-5.33-11.8-7.993-19.411-7.993H173.589c-7.612 0-14.083 2.663-19.414 7.993-5.33 5.327-7.994 11.799-7.994 19.414v45.679h-36.545v365.444h292.359V109.634h-36.549V63.955zm-36.542 45.679H182.725V73.091h146.179v36.543zM492.785 128.48c-12.563-12.562-27.601-18.846-45.111-18.846H429.4v365.444h18.274c17.511 0 32.548-6.276 45.111-18.842 12.559-12.56 18.842-27.597 18.842-45.111V173.588c-.001-17.508-6.284-32.545-18.842-45.108z"/></symbol><symbol viewBox="0 0 32 32" id="tripadvisor" xmlns="http://www.w3.org/2000/svg"><path d="M30.683 12.708c.375-1.609 1.568-3.219 1.568-3.219h-5.349c-3.005-1.943-6.647-2.968-10.688-2.968-4.187 0-7.968 1.041-10.953 3H.252s1.176 1.583 1.556 3.181C.835 14.046.252 15.666.252 17.447c0 4.416 3.599 8.011 8.015 8.011 2.527 0 4.765-1.183 6.245-3.005l1.697 2.552 1.724-2.584a7.852 7.852 0 002.937 2.324c1.943.88 4.125.979 6.125.239 4.141-1.536 6.26-6.161 4.74-10.301a7.767 7.767 0 00-1.079-1.98zm-4.23 10.765a6.32 6.32 0 01-4.891-.192 6.329 6.329 0 01-2.651-2.303c-.272-.4-.5-.833-.672-1.296-.199-.527-.292-1.068-.344-1.62-.099-1.109.057-2.229.536-3.271a6.392 6.392 0 013.604-3.328c3.319-1.219 7 .484 8.219 3.791 1.224 3.308-.479 6.991-3.781 8.215h-.02zm-12.89-2.446a6.405 6.405 0 01-5.297 2.817c-3.525 0-6.401-2.875-6.401-6.396s2.876-6.401 6.401-6.401c3.527 0 6.396 2.88 6.396 6.401 0 .219-.036.416-.063.64-.109 1.079-.453 2.1-1.036 2.959zm-9.366-3.663c0 2.188 1.781 3.959 3.964 3.959s3.959-1.771 3.959-3.959a3.959 3.959 0 00-7.918 0zm16.068 0a3.956 3.956 0 103.953-3.952 3.963 3.963 0 00-3.959 3.952zm-14.697 0a2.594 2.594 0 012.583-2.593c1.417 0 2.599 1.167 2.599 2.593a2.6 2.6 0 01-5.203 0zm16.047 0a2.593 2.593 0 012.593-2.593 2.597 2.597 0 01-.015 5.193 2.597 2.597 0 01-2.6-2.6zm-5.407-9.443c2.88 0 5.48.516 7.761 1.548a8.134 8.134 0 00-2.543.479 7.891 7.891 0 00-4.5 4.167c-.416.88-.635 1.812-.719 2.755a8.032 8.032 0 00-7.844-7.437c2.281-.979 4.928-1.511 7.787-1.511z"/></symbol><symbol viewBox="0 0 477.867 477.867" id="video" xmlns="http://www.w3.org/2000/svg"><path d="M238.933 0C106.974 0 0 106.974 0 238.933s106.974 238.933 238.933 238.933 238.933-106.974 238.933-238.933C477.726 107.033 370.834.141 238.933 0zm0 443.733c-113.108 0-204.8-91.692-204.8-204.8s91.692-204.8 204.8-204.8 204.8 91.692 204.8 204.8c-.122 113.058-91.742 204.678-204.8 204.8z"/><path d="M339.557 231.32a17.068 17.068 0 00-7.662-7.662l-136.533-68.267c-8.432-4.213-18.682-.794-22.896 7.638a17.068 17.068 0 00-1.8 7.637V307.2c-.004 9.426 7.633 17.07 17.059 17.075a17.068 17.068 0 007.637-1.8l136.533-68.267c8.436-4.204 11.867-14.452 7.662-22.888zM204.8 279.586V198.28l81.306 40.653-81.306 40.653z"/></symbol><symbol viewBox="0 0 512 512" id="youtube" xmlns="http://www.w3.org/2000/svg"><path d="M224.113 303.96L307.387 256l-83.274-47.96zm0 0"/><path d="M475.074 0H36.926C16.53 0 0 16.531 0 36.926v438.148C0 495.47 16.531 512 36.926 512h438.148C495.47 512 512 495.469 512 475.074V36.926C512 16.53 495.469 0 475.074 0zm-59.113 256.262s0 51.918-6.586 76.953c-3.691 13.703-14.496 24.508-28.2 28.195C356.142 368 256 368 256 368s-99.879 0-125.176-6.852c-13.703-3.687-24.508-14.496-28.199-28.199-6.59-24.77-6.59-76.949-6.59-76.949s0-51.914 6.59-76.95c3.688-13.702 14.758-24.773 28.2-28.46C155.858 144 256 144 256 144s100.14 0 125.176 6.852c13.703 3.687 24.508 14.496 28.199 28.199 6.852 25.035 6.586 77.21 6.586 77.21zm0 0"/></symbol></svg>